<svg width="84" height="75" viewBox="0 0 84 75" fill="none" xmlns="http://www.w3.org/2000/svg">
<path d="M26.3417 0.254095V12.9588H22.7302V3.03099H20.359V0.254095H26.3417Z" fill="#C19B61"/>
<path d="M33.898 13.2129C32.8036 13.2129 31.8308 12.9528 30.9796 12.4325C30.1284 11.9122 29.4596 11.156 28.9732 10.1638C28.499 9.15951 28.2619 7.97373 28.2619 6.60646C28.2619 5.23919 28.499 4.05947 28.9732 3.06729C29.4596 2.06301 30.1284 1.30072 30.9796 0.780435C31.8308 0.260145 32.8036 0 33.898 0C34.9802 0 35.947 0.260145 36.7982 0.780435C37.6493 1.30072 38.3121 2.06301 38.7863 3.06729C39.2727 4.05947 39.5159 5.23919 39.5159 6.60646C39.5159 7.97373 39.2727 9.15951 38.7863 10.1638C38.3121 11.156 37.6493 11.9122 36.7982 12.4325C35.947 12.9528 34.9802 13.2129 33.898 13.2129ZM33.898 10.2727C34.506 10.2727 34.9863 9.98229 35.339 9.40151C35.7038 8.80862 35.8862 7.87694 35.8862 6.60646C35.8862 5.33599 35.7038 4.41036 35.339 3.82957C34.9863 3.23668 34.506 2.94024 33.898 2.94024C33.2778 2.94024 32.7854 3.23668 32.4206 3.82957C32.0679 4.41036 31.8916 5.33599 31.8916 6.60646C31.8916 7.87694 32.0679 8.80862 32.4206 9.40151C32.7854 9.98229 33.2778 10.2727 33.898 10.2727Z" fill="#C19B61"/>
<path d="M46.3845 13.2129C45.2901 13.2129 44.3173 12.9528 43.4661 12.4325C42.6149 11.9122 41.9461 11.156 41.4597 10.1638C40.9855 9.15951 40.7484 7.97373 40.7484 6.60646C40.7484 5.23919 40.9855 4.05947 41.4597 3.06729C41.9461 2.06301 42.6149 1.30072 43.4661 0.780435C44.3173 0.260145 45.2901 0 46.3845 0C47.4668 0 48.4335 0.260145 49.2847 0.780435C50.1359 1.30072 50.7986 2.06301 51.2728 3.06729C51.7592 4.05947 52.0024 5.23919 52.0024 6.60646C52.0024 7.97373 51.7592 9.15951 51.2728 10.1638C50.7986 11.156 50.1359 11.9122 49.2847 12.4325C48.4335 12.9528 47.4668 13.2129 46.3845 13.2129ZM46.3845 10.2727C46.9925 10.2727 47.4729 9.98229 47.8255 9.40151C48.1903 8.80862 48.3727 7.87694 48.3727 6.60646C48.3727 5.33599 48.1903 4.41036 47.8255 3.82957C47.4729 3.23668 46.9925 2.94024 46.3845 2.94024C45.7644 2.94024 45.2719 3.23668 44.9071 3.82957C44.5545 4.41036 44.3781 5.33599 44.3781 6.60646C44.3781 7.87694 44.5545 8.80862 44.9071 9.40151C45.2719 9.98229 45.7644 10.2727 46.3845 10.2727Z" fill="#C19B61"/>
<path d="M56.281 7.1328C55.3203 7.1328 54.536 6.81821 53.928 6.18902C53.32 5.55984 53.016 4.70075 53.016 3.61177C53.016 2.89789 53.1559 2.27475 53.4356 1.74236C53.7152 1.20997 54.0983 0.804633 54.5847 0.526339C55.0832 0.235945 55.6487 0.090748 56.281 0.090748C57.2538 0.090748 58.0442 0.411392 58.6522 1.05268C59.2602 1.68187 59.5642 2.5349 59.5642 3.61177C59.5642 4.70075 59.2602 5.55984 58.6522 6.18902C58.0442 6.81821 57.2538 7.1328 56.281 7.1328ZM63.8323 0.254095H66.4589L57.7402 12.9588H55.1136L63.8323 0.254095ZM56.281 5.40859C56.6093 5.40859 56.8707 5.26339 57.0653 4.973C57.2599 4.6826 57.3571 4.22886 57.3571 3.61177C57.3571 2.99469 57.2599 2.54095 57.0653 2.25055C56.8707 1.96016 56.6093 1.81496 56.281 1.81496C55.9648 1.81496 55.7034 1.96621 55.4967 2.2687C55.3021 2.5591 55.2048 3.00679 55.2048 3.61177C55.2048 4.21676 55.3021 4.6705 55.4967 4.973C55.7034 5.26339 55.9648 5.40859 56.281 5.40859ZM65.2915 13.1222C64.3187 13.1222 63.5283 12.8076 62.9203 12.1784C62.3245 11.5492 62.0266 10.6901 62.0266 9.60115C62.0266 8.52427 62.3306 7.67124 62.9386 7.04205C63.5466 6.40077 64.3309 6.08012 65.2915 6.08012C66.2643 6.08012 67.0547 6.40077 67.6627 7.04205C68.2707 7.67124 68.5747 8.52427 68.5747 9.60115C68.5747 10.6901 68.2707 11.5492 67.6627 12.1784C67.0547 12.8076 66.2643 13.1222 65.2915 13.1222ZM65.2915 11.398C65.6198 11.398 65.8813 11.2528 66.0758 10.9624C66.2704 10.672 66.3677 10.2182 66.3677 9.60115C66.3677 8.98407 66.2704 8.53032 66.0758 8.23993C65.8813 7.94954 65.6198 7.80434 65.2915 7.80434C64.9632 7.80434 64.7018 7.94954 64.5072 8.23993C64.3126 8.53032 64.2154 8.98407 64.2154 9.60115C64.2154 10.2182 64.3126 10.672 64.5072 10.9624C64.7018 11.2528 64.9632 11.398 65.2915 11.398Z" fill="#C19B61"/>
<path d="M13.5619 38.9846L13.519 31.0628L9.65644 37.5112H7.76807L3.92695 31.2763V38.9846H0V24.0378H3.49778L8.77664 32.6642L13.9267 24.0378H17.4245L17.4674 38.9846H13.5619Z" fill="black"/>
<path d="M28.0488 39.2835C26.4608 39.2835 25.0303 38.949 23.757 38.2799C22.4981 37.6109 21.5039 36.6856 20.7743 35.5041C20.059 34.3226 19.7013 32.9916 19.7013 31.5112C19.7013 30.0308 20.059 28.6998 20.7743 27.5183C21.5039 26.3368 22.4981 25.4115 23.757 24.7424C25.0303 24.0734 26.4608 23.7389 28.0488 23.7389C29.6367 23.7389 31.0602 24.0734 32.3191 24.7424C33.5923 25.4115 34.5866 26.3368 35.3018 27.5183C36.0314 28.6998 36.3962 30.0308 36.3962 31.5112C36.3962 32.9916 36.0314 34.3226 35.3018 35.5041C34.5866 36.6856 33.5923 37.6109 32.3191 38.2799C31.0602 38.949 29.6367 39.2835 28.0488 39.2835ZM28.0488 35.7817C28.807 35.7817 29.4937 35.6038 30.1088 35.2479C30.724 34.892 31.2104 34.3938 31.568 33.7532C31.9257 33.0984 32.1045 32.3511 32.1045 31.5112C32.1045 30.6713 31.9257 29.9311 31.568 29.2905C31.2104 28.6357 30.724 28.1304 30.1088 27.7745C29.4937 27.4186 28.807 27.2407 28.0488 27.2407C27.2906 27.2407 26.6039 27.4186 25.9887 27.7745C25.3736 28.1304 24.8872 28.6357 24.5295 29.2905C24.1719 29.9311 23.9931 30.6713 23.9931 31.5112C23.9931 32.3511 24.1719 33.0984 24.5295 33.7532C24.8872 34.3938 25.3736 34.892 25.9887 35.2479C26.6039 35.6038 27.2906 35.7817 28.0488 35.7817Z" fill="black"/>
<path d="M52.9131 24.0378V38.9846H49.4153L42.7846 31.0201V38.9846H38.6216V24.0378H42.1194L48.7501 32.0023V24.0378H52.9131Z" fill="black"/>
<path d="M67.97 35.7176V38.9846H55.9101V24.0378H67.691V27.3047H60.1161V29.8243H66.7897V32.9845H60.1161V35.7176H67.97Z" fill="black"/>
<path d="M78.249 33.6251V38.9846H74.0002V33.561L68.2707 24.0378H72.7556L76.3178 29.9738L79.8799 24.0378H84L78.249 33.6251Z" fill="black"/>
<path d="M21.5198 50.4081C22.3781 50.7071 23.0505 51.1768 23.5369 51.8174C24.0233 52.4438 24.2665 53.2053 24.2665 54.1021C24.2665 55.4118 23.7372 56.4224 22.6786 57.1342C21.6199 57.8459 20.0892 58.2018 18.0864 58.2018H9.97497V43.2551H17.6572C19.5742 43.2551 21.0334 43.6109 22.0348 44.3227C23.0362 45.0202 23.5369 45.9668 23.5369 47.1626C23.5369 47.8743 23.3581 48.5149 23.0004 49.0843C22.6571 49.6395 22.1636 50.0807 21.5198 50.4081ZM14.1809 46.3085V49.1911H17.0993C18.5299 49.1911 19.2452 48.7071 19.2452 47.7391C19.2452 46.7853 18.5299 46.3085 17.0993 46.3085H14.1809ZM17.743 55.1484C19.2309 55.1484 19.9748 54.6431 19.9748 53.6324C19.9748 52.6217 19.2309 52.1164 17.743 52.1164H14.1809V55.1484H17.743Z" fill="black"/>
<path d="M36.5314 55.2979H30.1796L28.9993 58.2018H24.6647L31.2954 43.2551H35.4799L42.1321 58.2018H37.7116L36.5314 55.2979ZM35.2868 52.1804L33.3555 47.3974L31.4242 52.1804H35.2868Z" fill="black"/>
<path d="M50.6162 58.5008C49.0426 58.5008 47.6263 58.1733 46.3674 57.5185C45.1228 56.8495 44.1428 55.9242 43.4275 54.7427C42.7122 53.5612 42.3546 52.2231 42.3546 50.7284C42.3546 49.2338 42.7122 47.8957 43.4275 46.7142C44.1428 45.5327 45.1228 44.6145 46.3674 43.9597C47.6263 43.2906 49.0426 42.9561 50.6162 42.9561C51.9896 42.9561 53.227 43.1981 54.3286 43.6821C55.4301 44.1661 56.3457 44.8636 57.0753 45.7747L54.3715 48.2088C53.3987 47.0416 52.2184 46.4579 50.8308 46.4579C50.0154 46.4579 49.2858 46.6359 48.642 46.9918C48.0125 47.3476 47.519 47.853 47.1613 48.5078C46.818 49.1484 46.6463 49.8886 46.6463 50.7284C46.6463 51.5683 46.818 52.3156 47.1613 52.9705C47.519 53.611 48.0125 54.1093 48.642 54.4651C49.2858 54.821 50.0154 54.9989 50.8308 54.9989C52.2184 54.9989 53.3987 54.4153 54.3715 53.248L57.0753 55.6822C56.3457 56.5933 55.4301 57.2908 54.3286 57.7748C53.227 58.2588 51.9896 58.5008 50.6162 58.5008Z" fill="black"/>
<path d="M64.7636 52.7783L63.1756 54.4651V58.2018H58.9697V43.2551H63.1756V49.4686L68.9909 43.2551H73.6689L67.5317 49.8743L73.9908 58.2018H69.0553L64.7636 52.7783Z" fill="black"/>
<path d="M6.88984 75C6.23678 75 5.63486 74.8982 5.08409 74.6947C4.54118 74.4833 4.06515 74.1858 3.65601 73.8021C3.25473 73.4185 2.94 72.9683 2.71182 72.4516C2.49151 71.9348 2.38136 71.3672 2.38136 70.7487C2.38136 70.1302 2.49151 69.5626 2.71182 69.0459C2.94 68.5291 3.25866 68.0789 3.66781 67.6953C4.07696 67.3117 4.55692 67.0181 5.10769 66.8145C5.65847 66.6031 6.26432 66.4974 6.92525 66.4974C7.65699 66.4974 8.31399 66.6188 8.89624 66.8615C9.48635 67.1042 9.98205 67.4565 10.3833 67.9184L9.15589 69.0459C8.8569 68.7327 8.53036 68.5017 8.1763 68.353C7.82223 68.1964 7.43668 68.1181 7.01967 68.1181C6.61839 68.1181 6.25252 68.1807 5.92205 68.306C5.59159 68.4313 5.3044 68.6113 5.06048 68.8462C4.82444 69.0811 4.63953 69.359 4.50577 69.68C4.37988 70.001 4.31694 70.3573 4.31694 70.7487C4.31694 71.1324 4.37988 71.4847 4.50577 71.8057C4.63953 72.1267 4.82444 72.4085 5.06048 72.6512C5.3044 72.8861 5.58765 73.0662 5.91025 73.1914C6.24072 73.3167 6.60265 73.3793 6.99606 73.3793C7.37374 73.3793 7.73961 73.3206 8.09368 73.2032C8.45562 73.0779 8.80575 72.8704 9.14409 72.5808L10.2299 73.9548C9.78141 74.2915 9.25817 74.5498 8.66019 74.7299C8.07008 74.91 7.47996 75 6.88984 75ZM8.48316 73.7082V70.6195H10.2299V73.9548L8.48316 73.7082Z" fill="#C19B61"/>
<path d="M15.6765 75C14.5041 75 13.5875 74.6751 12.9265 74.0253C12.2656 73.3754 11.9352 72.4477 11.9352 71.242V66.6384H13.8471V71.1715C13.8471 71.9544 14.0084 72.5181 14.331 72.8626C14.6536 73.2071 15.106 73.3793 15.6883 73.3793C16.2705 73.3793 16.723 73.2071 17.0456 72.8626C17.3682 72.5181 17.5294 71.9544 17.5294 71.1715V66.6384H19.4178V71.242C19.4178 72.4477 19.0874 73.3754 18.4264 74.0253C17.7655 74.6751 16.8489 75 15.6765 75Z" fill="#C19B61"/>
<path d="M20.0485 74.8591L23.7308 66.6384H25.6192L29.3133 74.8591H27.3069L24.2855 67.6014H25.0409L22.0077 74.8591H20.0485ZM21.8897 73.0975L22.3972 71.653H26.646L27.1653 73.0975H21.8897Z" fill="#C19B61"/>
<path d="M30.1705 74.8591V66.6384H33.7466C34.4862 66.6384 35.1235 66.7597 35.6586 67.0024C36.1936 67.2373 36.6067 67.5779 36.8978 68.0241C37.1889 68.4704 37.3345 69.0028 37.3345 69.6213C37.3345 70.232 37.1889 70.7605 36.8978 71.2067C36.6067 71.6452 36.1936 71.9818 35.6586 72.2167C35.1235 72.4516 34.4862 72.569 33.7466 72.569H31.2327L32.0824 71.7352V74.8591H30.1705ZM35.4225 74.8591L33.3571 71.8761H35.3989L37.4879 74.8591H35.4225ZM32.0824 71.9466L31.2327 71.0541H33.6404C34.2305 71.0541 34.6711 70.9288 34.9622 70.6783C35.2533 70.4199 35.3989 70.0676 35.3989 69.6213C35.3989 69.1672 35.2533 68.8149 34.9622 68.5644C34.6711 68.3138 34.2305 68.1886 33.6404 68.1886H31.2327L32.0824 67.2843V71.9466Z" fill="#C19B61"/>
<path d="M37.7635 74.8591L41.4458 66.6384H43.3342L47.0283 74.8591H45.0219L42.0005 67.6014H42.7559L39.7227 74.8591H37.7635ZM39.6047 73.0975L40.1122 71.653H44.361L44.8803 73.0975H39.6047Z" fill="#C19B61"/>
<path d="M47.8855 74.8591V66.6384H49.467L54.3413 72.5573H53.5742V66.6384H55.4626V74.8591H53.8929L49.0067 68.9402H49.7738V74.8591H47.8855Z" fill="#C19B61"/>
<path d="M59.1286 74.8591V68.1886H56.4849V66.6384H63.6843V68.1886H61.0405V74.8591H59.1286Z" fill="#C19B61"/>
<path d="M66.4715 69.9501H70.4489V71.4299H66.4715V69.9501ZM66.6132 73.3324H71.1099V74.8591H64.713V66.6384H70.9564V68.1651H66.6132V73.3324Z" fill="#C19B61"/>
<path d="M74.3897 69.9501H78.3671V71.4299H74.3897V69.9501ZM74.5313 73.3324H79.028V74.8591H72.6312V66.6384H78.8746V68.1651H74.5313V73.3324Z" fill="#C19B61"/>
</svg>
